{
    "audio": [
        {
            "filename": "output_audio.aac",
            "stream": {
                "index": 0,
                "codec_name": "aac",
                "codec_long_name": "AAC (Advanced Audio Coding)",
                "profile": "LC",
                "codec_type": "audio",
                "codec_time_base": "1\/48000",
                "codec_tag_string": "[0][0][0][0]",
                "codec_tag": "0x0000",
                "sample_fmt": "fltp",
                "sample_rate": "48000",
                "channels": 2,
                "channel_layout": "stereo",
                "bits_per_sample": 0,
                "r_frame_rate": "0\/0",
                "avg_frame_rate": "0\/0",
                "time_base": "1\/28224000",
                "duration_ts": 1025286939,
                "duration": "36.326776",
                "bit_rate": "191250",
                "disposition": {
                    "default": 0,
                    "dub": 0,
                    "original": 0,
                    "comment": 0,
                    "lyrics": 0,
                    "karaoke": 0,
                    "forced": 0,
                    "hearing_impaired": 0,
                    "visual_impaired": 0,
                    "clean_effects": 0,
                    "attached_pic": 0,
                    "timed_thumbnails": 0
                }
            }
        }
    ],
    "video": [
        {
            "filename": "output_0_3.12.ts",
            "stream": {
                "index": 0,
                "codec_name": "h264",
                "codec_long_name": "H.264 \/ AVC \/ MPEG-4 AVC \/ MPEG-4 part 10",
                "profile": "High",
                "codec_type": "video",
                "codec_time_base": "1001\/60000",
                "codec_tag_string": "[27][0][0][0]",
                "codec_tag": "0x001b",
                "width": 854,
                "height": 480,
                "coded_width": 854,
                "coded_height": 480,
                "has_b_frames": 2,
                "sample_aspect_ratio": "1280:1281",
                "display_aspect_ratio": "16:9",
                "pix_fmt": "yuv420p",
                "level": 40,
                "chroma_location": "left",
                "field_order": "progressive",
                "refs": 1,
                "is_avc": "false",
                "nal_length_size": "0",
                "id": "0x100",
                "r_frame_rate": "30000\/1001",
                "avg_frame_rate": "30000\/1001",
                "time_base": "1\/90000",
                "start_pts": 132006,
                "start_time": "1.466733",
                "duration_ts": 282282,
                "duration": "3.136467",
                "bits_per_raw_sample": "8",
                "disposition": {
                    "default": 0,
                    "dub": 0,
                    "original": 0,
                    "comment": 0,
                    "lyrics": 0,
                    "karaoke": 0,
                    "forced": 0,
                    "hearing_impaired": 0,
                    "visual_impaired": 0,
                    "clean_effects": 0,
                    "attached_pic": 0,
                    "timed_thumbnails": 0
                }
            }
        },
        {
            "filename": "output_3.12_4.12.ts",
            "stream": {
                "index": 0,
                "codec_name": "h264",
                "codec_long_name": "H.264 \/ AVC \/ MPEG-4 AVC \/ MPEG-4 part 10",
                "profile": "High",
                "codec_type": "video",
                "codec_time_base": "1001\/60000",
                "codec_tag_string": "[27][0][0][0]",
                "codec_tag": "0x001b",
                "width": 854,
                "height": 480,
                "coded_width": 854,
                "coded_height": 480,
                "has_b_frames": 2,
                "sample_aspect_ratio": "1280:1281",
                "display_aspect_ratio": "16:9",
                "pix_fmt": "yuv420p",
                "level": 40,
                "chroma_location": "left",
                "field_order": "progressive",
                "refs": 1,
                "is_avc": "false",
                "nal_length_size": "0",
                "id": "0x100",
                "r_frame_rate": "30000\/1001",
                "avg_frame_rate": "30000\/1001",
                "time_base": "1\/90000",
                "start_pts": 132006,
                "start_time": "1.466733",
                "duration_ts": 90090,
                "duration": "1.001000",
                "bits_per_raw_sample": "8",
                "disposition": {
                    "default": 0,
                    "dub": 0,
                    "original": 0,
                    "comment": 0,
                    "lyrics": 0,
                    "karaoke": 0,
                    "forced": 0,
                    "hearing_impaired": 0,
                    "visual_impaired": 0,
                    "clean_effects": 0,
                    "attached_pic": 0,
                    "timed_thumbnails": 0
                }
            }
        },
        {
            "filename": "output_4.12_5.22.ts",
            "stream": {
                "index": 0,
                "codec_name": "h264",
                "codec_long_name": "H.264 \/ AVC \/ MPEG-4 AVC \/ MPEG-4 part 10",
                "profile": "High",
                "codec_type": "video",
                "codec_time_base": "1001\/60000",
                "codec_tag_string": "[27][0][0][0]",
                "codec_tag": "0x001b",
                "width": 854,
                "height": 480,
                "coded_width": 854,
                "coded_height": 480,
                "has_b_frames": 2,
                "sample_aspect_ratio": "1280:1281",
                "display_aspect_ratio": "16:9",
                "pix_fmt": "yuv420p",
                "level": 40,
                "chroma_location": "left",
                "field_order": "progressive",
                "refs": 1,
                "is_avc": "false",
                "nal_length_size": "0",
                "id": "0x100",
                "r_frame_rate": "30000\/1001",
                "avg_frame_rate": "30000\/1001",
                "time_base": "1\/90000",
                "start_pts": 132006,
                "start_time": "1.466733",
                "duration_ts": 96096,
                "duration": "1.067733",
                "bits_per_raw_sample": "8",
                "disposition": {
                    "default": 0,
                    "dub": 0,
                    "original": 0,
                    "comment": 0,
                    "lyrics": 0,
                    "karaoke": 0,
                    "forced": 0,
                    "hearing_impaired": 0,
                    "visual_impaired": 0,
                    "clean_effects": 0,
                    "attached_pic": 0,
                    "timed_thumbnails": 0
                }
            }
        },
        {
            "filename": "output_5.22_13.12.ts",
            "stream": {
                "index": 0,
                "codec_name": "h264",
                "codec_long_name": "H.264 \/ AVC \/ MPEG-4 AVC \/ MPEG-4 part 10",
                "profile": "High",
                "codec_type": "video",
                "codec_time_base": "1001\/60000",
                "codec_tag_string": "[27][0][0][0]",
                "codec_tag": "0x001b",
                "width": 854,
                "height": 480,
                "coded_width": 854,
                "coded_height": 480,
                "has_b_frames": 2,
                "sample_aspect_ratio": "1280:1281",
                "display_aspect_ratio": "16:9",
                "pix_fmt": "yuv420p",
                "level": 40,
                "chroma_location": "left",
                "field_order": "progressive",
                "refs": 1,
                "is_avc": "false",
                "nal_length_size": "0",
                "id": "0x100",
                "r_frame_rate": "30000\/1001",
                "avg_frame_rate": "30000\/1001",
                "time_base": "1\/90000",
                "start_pts": 132006,
                "start_time": "1.466733",
                "duration_ts": 708708,
                "duration": "7.874533",
                "bits_per_raw_sample": "8",
                "disposition": {
                    "default": 0,
                    "dub": 0,
                    "original": 0,
                    "comment": 0,
                    "lyrics": 0,
                    "karaoke": 0,
                    "forced": 0,
                    "hearing_impaired": 0,
                    "visual_impaired": 0,
                    "clean_effects": 0,
                    "attached_pic": 0,
                    "timed_thumbnails": 0
                }
            }
        },
        {
            "filename": "output_13.12_23.12.ts",
            "stream": {
                "index": 0,
                "codec_name": "h264",
                "codec_long_name": "H.264 \/ AVC \/ MPEG-4 AVC \/ MPEG-4 part 10",
                "profile": "High",
                "codec_type": "video",
                "codec_time_base": "1001\/60000",
                "codec_tag_string": "[27][0][0][0]",
                "codec_tag": "0x001b",
                "width": 854,
                "height": 480,
                "coded_width": 854,
                "coded_height": 480,
                "has_b_frames": 2,
                "sample_aspect_ratio": "1280:1281",
                "display_aspect_ratio": "16:9",
                "pix_fmt": "yuv420p",
                "level": 40,
                "chroma_location": "left",
                "field_order": "progressive",
                "refs": 1,
                "is_avc": "false",
                "nal_length_size": "0",
                "id": "0x100",
                "r_frame_rate": "30000\/1001",
                "avg_frame_rate": "30000\/1001",
                "time_base": "1\/90000",
                "start_pts": 132006,
                "start_time": "1.466733",
                "duration_ts": 897897,
                "duration": "9.976633",
                "bits_per_raw_sample": "8",
                "disposition": {
                    "default": 0,
                    "dub": 0,
                    "original": 0,
                    "comment": 0,
                    "lyrics": 0,
                    "karaoke": 0,
                    "forced": 0,
                    "hearing_impaired": 0,
                    "visual_impaired": 0,
                    "clean_effects": 0,
                    "attached_pic": 0,
                    "timed_thumbnails": 0
                }
            }
        }
    ]
}